<?xml version="1.0" standalone="no"?>
<!DOCTYPE svg PUBLIC "-//W3C//DTD SVG 20010904//EN"
 "http://www.w3.org/TR/2001/REC-SVG-20010904/DTD/svg10.dtd">
<svg version="1.0" xmlns="http://www.w3.org/2000/svg"
 width="339.000000pt" height="339.000000pt" viewBox="0 0 339.000000 339.000000"
 preserveAspectRatio="xMidYMid meet">
<metadata>
Created by potrace 1.14, written by Peter Selinger 2001-2017
</metadata>
<g transform="translate(0.000000,339.000000) scale(0.100000,-0.100000)"
fill="#000000" stroke="none">
<path d="M2035 3143 c-59 -15 -151 -125 -176 -211 -10 -33 -23 -51 -58 -74
-38 -27 -55 -32 -120 -35 -73 -3 -194 -25 -236 -41 -119 -48 -357 -178 -426
-234 -111 -89 -68 -252 86 -331 42 -21 233 -87 253 -87 10 0 30 -7 46 -15 25
-13 35 -14 59 -4 27 11 31 10 48 -12 21 -28 40 -65 66 -134 17 -43 23 -50 45
-48 18 1 37 -10 63 -37 l37 -38 -50 -26 c-55 -28 -80 -62 -105 -141 -19 -58
-45 -198 -45 -235 1 -49 -2 -60 -15 -60 -11 0 -105 92 -122 120 -3 5 3 38 14
74 24 78 34 136 35 200 1 55 -20 79 -84 96 -103 28 -274 10 -317 -33 -26 -26
-27 -33 -17 -184 l7 -113 44 -46 c46 -47 49 -61 28 -116 -4 -10 2 -25 15 -38
28 -28 28 -34 -5 -221 -71 -406 -59 -370 -155 -472 -67 -72 -74 -94 -32 -102
15 -4 45 -10 67 -15 32 -7 45 -6 70 10 16 10 64 39 106 64 85 50 96 69 73 124
-19 47 -18 74 10 226 14 72 27 148 31 168 3 21 10 40 16 43 5 4 33 -7 62 -23
l52 -29 0 -124 c0 -148 15 -190 80 -224 57 -29 55 -55 -7 -122 -28 -29 -72
-67 -99 -84 -68 -43 -66 -64 8 -79 75 -16 153 -7 218 24 28 14 55 26 59 26 5
0 20 8 34 19 19 12 33 16 47 10 11 -4 34 -8 51 -8 17 -1 37 -8 44 -16 17 -21
43 -19 64 4 16 18 19 18 46 3 36 -21 58 -5 62 46 3 41 -6 39 138 33 84 -3 163
14 248 54 86 40 107 69 107 140 0 34 -4 42 -28 53 -15 7 -39 16 -53 18 -14 3
-55 16 -92 30 -37 14 -89 27 -117 28 l-50 3 3 54 c1 30 10 83 18 118 16 64 20
224 10 326 -3 28 -8 82 -12 120 -10 90 -10 117 -1 192 4 34 10 106 13 160 3
63 9 103 18 111 8 8 33 16 57 17 24 2 81 6 125 9 204 15 345 80 363 168 28
132 -116 277 -422 423 -83 40 -100 52 -117 85 -10 20 -18 39 -16 41 2 2 7 26
11 54 6 50 17 65 46 65 28 0 51 37 51 80 -2 120 -140 206 -277 173z m52 -1235
c33 -52 33 -110 0 -104 -32 7 -97 39 -97 49 0 18 52 67 71 67 10 0 21 -6 26
-12z"/>
</g>
</svg>
